<?xml version="1.0" encoding="UTF-8"?>
<svg id="Layer_1" xmlns="http://www.w3.org/2000/svg" version="1.1" viewBox="0 0 40 40">
  <!-- Generator: Adobe Illustrator 30.1.0, SVG Export Plug-In . SVG Version: 2.1.1 Build 136)  -->
  <defs>
    <style>
      .st0 {
        fill: none;
      }

      .st1 {
        fill: #fff;
      }
    </style>
  </defs>
  <rect class="st0" width="40" height="40"/>
  <path class="st1" d="M20,4c-8.84,0-16,7.16-16,16s7.16,16,16,16,16-7.16,16-16S28.84,4,20,4ZM20,11c3.32,0,6,2.68,6,6s-2.68,6-6,6-6-2.68-6-6,2.68-6,6-6ZM20,33c-4.1,0-7.74-1.9-10.14-4.88,2.9-1.96,6.38-3.12,10.14-3.12s7.24,1.16,10.14,3.12c-2.4,2.98-6.04,4.88-10.14,4.88Z"/>
</svg>