<?xml version="1.0" encoding="UTF-8"?>
<svg id="Layer_1" xmlns="http://www.w3.org/2000/svg" version="1.1" viewBox="0 0 40 40">
  <!-- Generator: Adobe Illustrator 30.1.0, SVG Export Plug-In . SVG Version: 2.1.1 Build 136)  -->
  <defs>
    <style>
      .st0 {
        fill: none;
      }

      .st1 {
        fill: #fff;
      }
    </style>
  </defs>
  <path class="st0" d="M0,0h40v40H0V0Z"/>
  <path class="st1" d="M31.9,21.57c.07-.5.1-1.02.1-1.57s-.03-1.07-.12-1.57l3.38-2.63c.3-.23.38-.68.2-1.02l-3.2-5.53c-.2-.37-.62-.48-.98-.37l-3.98,1.6c-.83-.63-1.72-1.17-2.7-1.57l-.6-4.23c-.07-.4-.4-.68-.8-.68h-6.4c-.4,0-.72.28-.78.68l-.6,4.23c-.98.4-1.88.95-2.7,1.57l-3.98-1.6c-.37-.13-.78,0-.98.37l-3.18,5.53c-.2.35-.13.78.2,1.02l3.38,2.63c-.08.5-.15,1.05-.15,1.57s.03,1.07.12,1.57l-3.38,2.63c-.3.23-.38.68-.2,1.02l3.2,5.53c.2.37.62.48.98.37l3.98-1.6c.83.63,1.72,1.17,2.7,1.57l.6,4.23c.08.4.4.68.8.68h6.4c.4,0,.73-.28.78-.68l.6-4.23c.98-.4,1.88-.93,2.7-1.57l3.98,1.6c.37.13.78,0,.98-.37l3.2-5.53c.2-.37.12-.78-.2-1.02l-3.35-2.63ZM20,26c-3.3,0-6-2.7-6-6s2.7-6,6-6,6,2.7,6,6-2.7,6-6,6Z"/>
</svg>