<?xml version="1.0" encoding="UTF-8"?>
<svg id="Layer_2" data-name="Layer 2" xmlns="http://www.w3.org/2000/svg" viewBox="0 0 411.16 505.32">
  <defs>
    <style>
      .cls-1 {
        fill: #fff;
      }
    </style>
  </defs>
  <path class="cls-1" d="M216.48,505.32c-32.11,0-60.18-6.19-84.22-18.57-24.04-12.38-42.65-29.37-55.83-50.99-13.18-21.62-19.78-46.42-19.78-74.4v-232.49c0-16.94,13.73-30.68,30.68-30.68h0c16.94,0,30.68,13.73,30.68,30.68v227.37c0,18.12,3.99,34.17,11.97,48.17,7.98,13.99,19.33,25.02,34.04,33.1s32.2,12.11,52.47,12.11,37.45-4.04,52.07-12.11c14.62-8.07,25.88-19.1,33.77-33.1,7.89-13.99,11.84-30.05,11.84-48.17v-227.37c0-16.94,13.73-30.68,30.68-30.68h.27c16.94,0,30.68,13.73,30.68,30.68v232.49c0,27.98-6.59,52.78-19.78,74.4-13.18,21.62-31.75,38.61-55.7,50.99-23.95,12.38-51.89,18.57-83.82,18.57Z"/>
  <path class="cls-1" d="M56.65,26.37h0c0-14.56,11.81-26.37,26.37-26.37h266.39c14.56,0,26.37,11.81,26.37,26.37h0c0,14.56-11.81,26.37-26.37,26.37h-75.75c-14.56,0-26.37,11.81-26.37,26.37v295.45c0,14.56-11.81,26.37-26.37,26.37h-8.88c-14.56,0-26.37-11.81-26.37-26.37V79.11c0-14.56-11.81-26.37-26.37-26.37h-76.28c-14.56,0-26.37-11.81-26.37-26.37Z"/>
</svg>