<?xml version="1.0" encoding="UTF-8"?>
<svg id="Layer_3" data-name="Layer 3" xmlns="http://www.w3.org/2000/svg" viewBox="0 0 2713.39 3424.56">
  <path d="M1191.67,1650.28c-83.98-10.51-330.45-15.44-498.88-17.64-35.84-.48-59.66-37.29-45.4-70.19,34.26-78.98,68.2-157.34,101.21-233.58,11.89-27.47,40.19-44.06,69.97-40.94,137.06,14.33,383.02,46.85,565.82,109.05,267.07,90.84,335.9,173.46,338.66,220.27,2.74,46.8,22.01,74.34-90.86,187.23-112.9,112.87-115.66,156.94-107.39,247.8,8.26,90.86,57.83,143.17,203.76,181.73,87.94,23.23,226.88,44.45,323.4,57.65,15.28,2.11,14.85,24.3-.5,25.86-518.15,52.33-616.31-.91-616.31-.91,0,0-202.22-49.56-215.99-162.46-13.77-112.9,75.49-157,121.16-189.97,40.44-29.21,107.37-96.37,93.6-176.23-13.77-79.84-110.13-121.14-242.25-137.67"/>
  <path d="M1992.86,2162.41c-223.03-68.83-234.03-118.4-250.56-162.44-16.51-44.06,0-101.89,82.6-178.99,82.6-77.08,162.46-156.94,129.42-258.8-33.06-101.87-93.63-220.27-424.03-385.47-233.22-116.63-459.55-176.97-572.54-202.4-26.58-5.98-41.16-34.62-30.41-59.66,76.44-177.88,133.89-312.9,156.21-368.33,98.4-244.4,156.37-268.36,273.14-268.36s175.86,40.12,273.14,268.36c67.29,157.98,420.63,974.56,681.79,1577.8,11.82,27.35-6.7,58.1-36.39,60.68-88.67,7.68-190.85,5.86-282.38-22.39"/>
  <path d="M478.72,1950.95c6.88-15.83,19.65-28.37,35.59-34.94,125.26-51.76,219.63-86.02,219.63-86.02,0,0,264.96-99.85,333.8,26.79,68.83,126.66-13.77,201-22.03,220.27-8.26,19.29-286.36,187.23,145.95,335.93,323.49,111.24,936.68,85.29,1224.94,65.19,28.12-1.97,54.39,14.04,65.6,39.9,63.78,147.31,107.3,247.76,116.81,269.72,1.43,3.31,2.58,6.7,3.46,10.17,8.42,33.76,45.19,210.51-83.87,299.9-129.29,89.53-315.23,30.73-349.85,18.57-3.49-1.22-6.84-2.74-10.05-4.53-43.47-24.02-403.69-216.35-802.02-216.35s-758.53,192.33-802,216.35c-3.22,1.79-6.57,3.31-10.05,4.53-34.62,12.16-220.56,70.96-349.85-18.57-128.95-89.32-92.36-265.87-83.89-299.81.88-3.53,2.08-7,3.53-10.32,19.59-44.88,179.31-411.14,364.3-836.76"/>
</svg>