<?xml version="1.0" encoding="UTF-8"?>
<svg id="Layer_4" data-name="Layer 4" xmlns="http://www.w3.org/2000/svg" xmlns:xlink="http://www.w3.org/1999/xlink" viewBox="0 0 2713.39 3424.56">
  <defs>
    <style>
      .cls-1 {
        fill: none;
      }

      .cls-2 {
        fill: #fff;
      }

      .cls-3 {
        clip-path: url(#clippath);
      }
    </style>
    <clipPath id="clippath">
      <rect class="cls-1" x="113.96" y="1180.73" width="2575.28" height="972.07"/>
    </clipPath>
  </defs>
  <g class="cls-3">
    <path class="cls-2" d="M446.12,1598.14c-25.54-3.2-100.51-4.7-151.74-5.36-10.9-.14-18.15-11.34-13.81-21.35,10.42-24.02,20.74-47.86,30.78-71.05,3.62-8.35,12.22-13.4,21.28-12.45,41.69,4.36,116.5,14.25,172.1,33.17,81.23,27.63,102.17,52.76,103.01,67,.83,14.24,6.69,22.61-27.64,56.95-34.34,34.33-35.18,47.73-32.66,75.37,2.51,27.64,17.59,43.55,61.98,55.28,26.75,7.07,69.01,13.52,98.37,17.53,4.65.64,4.52,7.39-.15,7.86-157.6,15.92-187.46-.28-187.46-.28,0,0-61.51-15.08-65.7-49.41-4.19-34.34,22.96-47.75,36.85-57.78,12.3-8.88,32.66-29.31,28.47-53.6-4.19-24.28-33.5-36.85-73.68-41.87"/>
    <path class="cls-2" d="M689.81,1753.91c-67.84-20.94-71.18-36.01-76.21-49.41-5.02-13.4,0-30.99,25.12-54.44,25.12-23.44,49.41-47.73,39.37-78.72-10.06-30.98-28.48-67-128.97-117.24-70.94-35.47-139.78-53.83-174.14-61.56-8.09-1.82-12.52-10.53-9.25-18.15,23.25-54.1,40.72-95.17,47.51-112.03,29.93-74.34,47.56-81.62,83.08-81.62s53.49,12.2,83.08,81.62c20.47,48.05,127.94,296.42,207.37,479.91,3.59,8.32-2.04,17.67-11.07,18.46-26.97,2.33-58.05,1.78-85.89-6.81"/>
    <path class="cls-2" d="M229.26,1689.59c2.09-4.81,5.98-8.63,10.83-10.63,38.1-15.74,66.8-26.16,66.8-26.16,0,0,80.59-30.37,101.53,8.15,20.94,38.53-4.19,61.14-6.7,67-2.51,5.87-87.1,56.95,44.39,102.18,98.39,33.84,284.9,25.94,372.58,19.83,8.55-.6,16.54,4.27,19.95,12.13,19.4,44.81,32.64,75.36,35.53,82.04.43,1.01.79,2.04,1.05,3.09,2.56,10.27,13.75,64.03-25.51,91.22-39.32,27.23-95.88,9.35-106.41,5.65-1.06-.37-2.08-.83-3.06-1.38-13.22-7.31-122.79-65.81-243.94-65.81s-230.71,58.5-243.94,65.81c-.98.54-2,1.01-3.06,1.38-10.53,3.7-67.09,21.58-106.41-5.65-39.22-27.17-28.09-80.87-25.52-91.19.27-1.07.63-2.13,1.07-3.14,5.96-13.65,54.54-125.05,110.8-254.51"/>
  </g>
  <g>
    <path class="cls-2" d="M1339.86,1671.89c11.58-9.71,20.69-21.82,27.34-36.33,6.65-14.5,9.98-31.46,9.98-50.89v-166.06h-69.46v172.44c0,10.65-2.2,19.76-6.59,27.34-4.39,7.58-10.58,13.31-18.56,17.16-7.98,3.86-17.3,5.79-27.94,5.79s-19.43-1.93-27.15-5.79c-7.72-3.85-13.71-9.58-17.96-17.16-4.26-7.59-6.39-16.7-6.39-27.34v-172.44h-69.46v166.06c0,25.82,5.45,47.3,16.37,64.46,10.91,17.17,25.41,30.08,43.51,38.72,18.09,8.65,38.05,12.97,59.88,12.97,16.23,0,31.8-2.4,46.7-7.19,14.9-4.79,28.14-12.04,39.72-21.75Z"/>
    <path class="cls-2" d="M1489.34,1601.04h35.31l55.7,97h76.64l-63.38-104.38c.37-.14.75-.26,1.11-.41,13.04-5.19,23.75-12.18,32.14-20.96,8.38-8.78,14.63-18.63,18.76-29.54,4.12-10.91,6.19-21.95,6.19-33.13,0-16.23-3.79-31.27-11.38-45.11-7.59-13.83-19.03-24.95-34.33-33.33-15.3-8.38-34.53-12.58-57.68-12.58h-128.53v279.42h69.46v-97ZM1489.34,1476.89h54.69c12.5,0,21.82,2.93,27.94,8.78,6.12,5.86,9.18,13.84,9.18,23.95,0,6.92-1.4,12.91-4.19,17.96-2.79,5.06-6.92,8.85-12.37,11.38-5.46,2.53-12.31,3.79-20.56,3.79h-54.69v-65.86Z"/>
    <path class="cls-2" d="M1924.83,1455.54c-13.04-12.63-28.28-22.42-45.71-29.34-17.43-6.92-36.12-10.38-56.08-10.38s-38.59,3.46-55.88,10.38c-17.3,6.92-32.53,16.7-45.7,29.34-13.17,12.64-23.49,27.68-30.94,45.11-7.45,17.43-11.18,36.66-11.18,57.68s3.72,40.25,11.18,57.68c7.45,17.43,17.76,32.47,30.94,45.11,13.17,12.64,28.4,22.42,45.7,29.34,17.3,6.92,35.93,10.38,55.88,10.38s38.58-3.46,55.88-10.38c17.3-6.92,32.53-16.7,45.7-29.34,13.17-12.63,23.48-27.67,30.94-45.11,7.45-17.43,11.18-36.66,11.18-57.68s-3.73-40.25-11.18-57.68c-7.45-17.43-17.7-32.46-30.73-45.11ZM1886.91,1601.04c-6.13,12.51-14.64,22.35-25.55,29.54-10.91,7.19-23.69,10.78-38.32,10.78s-27.81-3.59-38.72-10.78c-10.91-7.19-19.36-17.02-25.35-29.54-5.99-12.51-8.98-26.74-8.98-42.71s2.99-30.54,8.98-42.91c5.99-12.37,14.43-22.15,25.35-29.34,10.91-7.19,23.81-10.78,38.72-10.78s27.41,3.59,38.32,10.78c10.91,7.19,19.42,16.96,25.55,29.34,6.12,12.37,9.18,26.68,9.18,42.91s-3.06,30.21-9.18,42.71Z"/>
    <path class="cls-2" d="M2174.31,1593.25c13.04-5.19,23.75-12.18,32.14-20.96,8.38-8.78,14.63-18.63,18.76-29.54,4.12-10.91,6.19-21.95,6.19-33.13,0-16.23-3.79-31.27-11.38-45.11-7.59-13.83-19.03-24.95-34.33-33.33-15.3-8.38-34.53-12.58-57.68-12.58h-128.53v279.42h69.46v-97h35.31l55.7,97h76.64l-63.38-104.38c.37-.14.75-.26,1.11-.41ZM2068.93,1476.89h54.69c12.5,0,21.82,2.93,27.94,8.78,6.12,5.86,9.18,13.84,9.18,23.95,0,6.92-1.4,12.91-4.19,17.96-2.79,5.06-6.92,8.85-12.37,11.38-5.46,2.53-12.31,3.79-20.56,3.79h-54.69v-65.86Z"/>
    <path class="cls-2" d="M2492.04,1698.03h71.85l-101.39-279.42h-110.17l-102.19,279.42h71.85l19.57-55.88h130.61l19.87,55.88ZM2361.97,1583.87l37.46-106.98h13.97l38.04,106.98h-89.47Z"/>
    <path class="cls-2" d="M1061.84,1698.03h71.85l-101.39-279.42h-110.17l-102.19,279.42h71.85l19.57-55.88h130.61l19.87,55.88ZM931.77,1583.87l37.46-106.98h13.97l38.04,106.98h-89.47Z"/>
    <path class="cls-2" d="M1173.66,2025.35h71.85l-101.39-279.42h-110.17l-102.19,279.42h71.85l19.57-55.88h130.61l19.87,55.88ZM1043.59,1911.19l37.46-106.98h13.97l38.04,106.98h-89.47Z"/>
    <path class="cls-2" d="M1446.23,1920.57c13.04-5.19,23.75-12.18,32.14-20.96,8.38-8.78,14.63-18.63,18.76-29.54,4.12-10.91,6.19-21.95,6.19-33.13,0-16.23-3.79-31.27-11.38-45.11-7.59-13.83-19.03-24.95-34.33-33.33-15.3-8.38-34.53-12.58-57.68-12.58h-128.53v279.42h69.46v-97h35.31l55.7,97h76.64l-63.38-104.38c.37-.14.75-.26,1.11-.41ZM1340.85,1804.21h54.69c12.5,0,21.82,2.93,27.94,8.78,6.12,5.86,9.18,13.84,9.18,23.95,0,6.92-1.4,12.91-4.19,17.96-2.79,5.06-6.92,8.85-12.37,11.38-5.46,2.53-12.31,3.79-20.56,3.79h-54.69v-65.86Z"/>
    <polygon class="cls-2" points="1530.86 1804.21 1617.47 1804.21 1617.47 2025.35 1686.93 2025.35 1686.93 1804.21 1773.95 1804.21 1773.95 1745.93 1530.86 1745.93 1530.86 1804.21"/>
  </g>
</svg>