<svg xmlns="http://www.w3.org/2000/svg" version="1.1" xmlns:xlink="http://www.w3.org/1999/xlink" width="200" height="200"><svg xmlns="http://www.w3.org/2000/svg" version="1.1" xmlns:xlink="http://www.w3.org/1999/xlink" viewBox="0 0 200 200"><rect width="200" height="200" fill="url('#gradient')"></rect><defs><linearGradient id="SvgjsLinearGradient1001" gradientTransform="rotate(45 0.5 0.5)"><stop offset="0%" stop-color="#c1c560"></stop><stop offset="100%" stop-color="#fd9155"></stop></linearGradient></defs><g><g fill="#6a5855" transform="matrix(9.29500756429652,0,0,9.29500756429652,17.787889363185002,151.35237456594402)" stroke="#668085" stroke-width="0.2"><path d="M4.95 0L1.65 0L1.65-8.28L0.12-8.28L0.12-10.57L1.65-10.57L1.65-11.41Q1.65-13.21 2.71-14.21Q3.78-15.21 5.70-15.21L5.70-15.21Q6.41-15.21 7.25-15L7.25-15L7.26-12.58Q6.95-12.67 6.45-12.67L6.45-12.67Q4.95-12.67 4.95-11.38L4.95-11.38L4.95-10.57L7.01-10.57L7.01-8.28L4.95-8.28L4.95 0ZM7.55-5.24L7.55-5.36Q7.55-6.96 8.08-8.19Q8.60-9.42 9.59-10.09Q10.58-10.76 11.88-10.76L11.88-10.76Q13.54-10.76 14.46-9.65L14.46-9.65L14.58-10.57L17.57-10.57L17.57-0.40Q17.57 1.00 16.92 2.03Q16.27 3.06 15.04 3.61Q13.81 4.16 12.19 4.16L12.19 4.16Q11.03 4.16 9.94 3.72Q8.85 3.28 8.27 2.58L8.27 2.58L9.65 0.64Q10.57 1.73 12.07 1.73L12.07 1.73Q14.26 1.73 14.26-0.52L14.26-0.52L14.26-0.85Q13.31 0.20 11.87 0.20L11.87 0.20Q9.93 0.20 8.74-1.28Q7.55-2.76 7.55-5.24L7.55-5.24ZM10.85-5.16L10.85-5.16Q10.85-3.86 11.34-3.10Q11.83-2.34 12.71-2.34L12.71-2.34Q13.77-2.34 14.26-3.06L14.26-3.06L14.26-7.50Q13.78-8.22 12.72-8.22L12.72-8.22Q11.85-8.22 11.35-7.44Q10.85-6.65 10.85-5.16Z"></path></g></g></svg><style>@media (prefers-color-scheme: light) { :root { filter: none; } }
@media (prefers-color-scheme: dark) { :root { filter: none; } }
</style></svg>