<?xml version="1.0" encoding="UTF-8"?>
<svg id="Layer_1" xmlns="http://www.w3.org/2000/svg" version="1.1" viewBox="0 0 581.54 115.79">
  <!-- Generator: Adobe Illustrator 29.8.2, SVG Export Plug-In . SVG Version: 2.1.1 Build 3)  -->
  <defs>
    <style>
      .st0 {
        fill: #4e2600;
      }
    </style>
  </defs>
  <path class="st0" d="M57.81,18.09c7,3.71,12.42,8.92,16.26,15.62,3.84,6.71,5.76,14.44,5.76,23.21s-1.92,16.4-5.76,23.15c-3.84,6.75-9.28,11.98-16.32,15.69s-15.2,5.57-24.48,5.57H0V12.52h33.27c9.36,0,17.54,1.86,24.54,5.57ZM50.98,75.9c4.55-4.47,6.83-10.79,6.83-18.98s-2.28-14.55-6.83-19.1-10.92-6.83-19.1-6.83h-10.25v51.61h10.25c8.18,0,14.55-2.23,19.1-6.71h0Z"/>
  <path class="st0" d="M158.13,71.22h-48.96c.34,4.39,1.75,7.74,4.24,10.06s5.54,3.48,9.17,3.48c5.4,0,9.15-2.28,11.26-6.83h23.02c-1.18,4.64-3.31,8.81-6.39,12.52s-6.94,6.62-11.58,8.73c-4.64,2.11-9.83,3.16-15.56,3.16-6.92,0-13.07-1.47-18.47-4.43-5.4-2.95-9.61-7.17-12.65-12.65s-4.55-11.89-4.55-19.23,1.5-13.75,4.49-19.23,7.19-9.7,12.59-12.65c5.4-2.95,11.6-4.43,18.6-4.43s12.9,1.43,18.22,4.3c5.31,2.87,9.47,6.96,12.46,12.27s4.49,11.51,4.49,18.6c0,2.02-.13,4.13-.38,6.33h0ZM136.37,59.21c0-3.71-1.27-6.66-3.8-8.86-2.53-2.19-5.69-3.29-9.49-3.29s-6.68,1.06-9.17,3.16c-2.49,2.11-4.03,5.1-4.62,8.98h27.08Z"/>
  <path class="st0" d="M244.72,46.81c2.99-5.48,7.17-9.7,12.52-12.65,5.35-2.95,11.49-4.43,18.41-4.43,8.86,0,16.26,2.32,22.2,6.96s9.85,11.18,11.7,19.61h-23.02c-1.94-5.4-5.69-8.1-11.26-8.1-3.97,0-7.13,1.54-9.49,4.62s-3.54,7.49-3.54,13.22,1.18,10.14,3.54,13.22c2.36,3.08,5.52,4.62,9.49,4.62,5.57,0,9.32-2.7,11.26-8.1h23.02c-1.86,8.27-5.78,14.76-11.76,19.48-5.99,4.72-13.37,7.08-22.14,7.08-6.92,0-13.05-1.47-18.41-4.43-5.36-2.95-9.53-7.17-12.52-12.65s-4.49-11.89-4.49-19.23,1.5-13.75,4.49-19.23h0Z"/>
  <path class="st0" d="M322.65,20.05c-2.4-2.23-3.61-5-3.61-8.29s1.2-6.18,3.61-8.41C325.05,1.12,328.15,0,331.95,0s6.77,1.12,9.17,3.35c2.4,2.24,3.61,5.04,3.61,8.41s-1.2,6.05-3.61,8.29c-2.4,2.24-5.46,3.35-9.17,3.35s-6.89-1.12-9.3-3.35ZM342.7,30.74v50.64h-21.63V30.74h21.63Z"/>
  <path class="st0" d="M228.85,30.74v5.96h-21.63v-5.96s21.63,0,21.63,0Z"/>
  <path class="st0" d="M228.85,39.34v4.06h-21.63v-4.06h21.63Z"/>
  <path class="st0" d="M228.85,44.96v2.38h-21.63v-2.38h21.63Z"/>
  <path class="st0" d="M342.7,84.74v5.96h-21.63v-5.96h21.63Z"/>
  <path class="st0" d="M342.7,93.34v4.06h-21.63v-4.06h21.63Z"/>
  <path class="st0" d="M342.7,98.95v2.38h-21.63v-2.38h21.63Z"/>
  <path class="st0" d="M371.86,97.92c-5.52-2.95-9.87-7.17-13.03-12.65s-4.74-11.89-4.74-19.23,1.6-13.64,4.81-19.17c3.2-5.52,7.59-9.76,13.16-12.71,5.57-2.95,11.81-4.43,18.72-4.43s13.16,1.48,18.72,4.43c5.57,2.95,9.95,7.19,13.16,12.71,3.2,5.52,4.81,11.91,4.81,19.17s-1.62,13.64-4.87,19.17c-3.25,5.52-7.68,9.76-13.28,12.71-5.61,2.95-11.87,4.43-18.79,4.43s-13.14-1.47-18.66-4.43h-.01ZM401.09,79.07c2.91-3.04,4.36-7.38,4.36-13.03s-1.41-9.99-4.24-13.03-6.31-4.55-10.44-4.55-7.72,1.5-10.5,4.49-4.17,7.36-4.17,13.09,1.37,9.99,4.11,13.03,6.18,4.55,10.31,4.55,7.65-1.52,10.56-4.55h.01Z"/>
  <path class="st0" d="M508.68,30.74v70.59h-21.63v-9.61c-2.19,3.12-5.17,5.63-8.92,7.53s-7.91,2.85-12.46,2.85c-5.4,0-10.16-1.2-14.29-3.61-4.13-2.4-7.34-5.88-9.61-10.44-2.28-4.55-3.42-9.91-3.42-16.07V30.74h21.51v38.33c0,4.72,1.22,8.39,3.67,11.01,2.45,2.61,5.73,3.92,9.87,3.92s7.55-1.31,9.99-3.92,3.67-6.28,3.67-11.01V30.74h21.63-.01Z"/>
  <path class="st0" d="M536.51,99.18c-4.81-2.11-8.6-5-11.39-8.67-2.78-3.67-4.34-7.78-4.68-12.33h21.38c.25,2.45,1.39,4.43,3.42,5.95,2.02,1.52,4.51,2.28,7.46,2.28,2.7,0,4.78-.53,6.26-1.58,1.47-1.05,2.21-2.42,2.21-4.11,0-2.02-1.06-3.52-3.16-4.49-2.11-.97-5.52-2.04-10.25-3.23-5.06-1.18-9.28-2.42-12.65-3.73-3.37-1.31-6.28-3.37-8.73-6.2-2.45-2.82-3.67-6.64-3.67-11.45,0-4.05,1.12-7.74,3.35-11.07s5.52-5.97,9.87-7.91c4.34-1.94,9.51-2.91,15.5-2.91,8.86,0,15.83,2.19,20.94,6.58,5.1,4.39,8.03,10.21,8.79,17.46h-19.99c-.34-2.44-1.41-4.38-3.23-5.82-1.81-1.43-4.2-2.15-7.15-2.15-2.53,0-4.47.49-5.82,1.45-1.35.97-2.02,2.3-2.02,3.98,0,2.02,1.07,3.54,3.23,4.55s5.5,2.02,10.06,3.04c5.23,1.35,9.49,2.68,12.78,3.98,3.29,1.31,6.18,3.42,8.67,6.33s3.77,6.81,3.86,11.7c0,4.13-1.16,7.82-3.48,11.07s-5.65,5.8-9.99,7.65c-4.34,1.85-9.38,2.78-15.12,2.78-6.16,0-11.64-1.05-16.45-3.16h0Z"/>
  <g>
    <path class="st0" d="M218.09,23.4c3.71,0,6.77-1.12,9.17-3.35s3.61-5,3.61-8.29-1.2-6.18-3.61-8.41C224.86,1.12,221.8,0,218.09,0s-6.89,1.12-9.3,3.35c-2.4,2.24-3.61,5.04-3.61,8.41s1.2,6.05,3.61,8.29c2.4,2.24,5.5,3.35,9.3,3.35Z"/>
    <path class="st0" d="M228.85,64.29l-37.32.18V7.72h-21.63l.24,69.35s-.85,24.27,28.93,24.27,29.78-24.27,29.78-24.27v-12.77h0Z"/>
  </g>
</svg>