<?xml version="1.0" encoding="UTF-8"?>
<svg id="Layer_1" xmlns="http://www.w3.org/2000/svg" version="1.1" viewBox="0 0 640 640">
  <!-- Generator: Adobe Illustrator 29.8.2, SVG Export Plug-In . SVG Version: 2.1.1 Build 3)  -->
  <defs>
    <style>
      .st0 {
        fill: #1697ae;
      }
    </style>
  </defs>
  <path class="st0" d="M128,128c0-35.3,28.7-64,64-64h213.5c17,0,33.3,6.7,45.3,18.7l42.5,42.5c12,12,18.7,28.3,18.7,45.3v37.5H128v-80ZM64,320c0-35.3,28.7-64,64-64h384c35.3,0,64,28.7,64,64v96c0,17.7-14.3,32-32,32h-32v64c0,35.3-28.7,64-64,64H192c-35.3,0-64-28.7-64-64v-64h-32c-17.7,0-32-14.3-32-32v-96ZM192,480v32h256v-96H192v64ZM520,336c0-13.3-10.7-24-24-24s-24,10.7-24,24,10.7,24,24,24,24-10.7,24-24Z"/>
</svg>