<svg width="42" height="42" viewBox="0 0 42 42" fill="none" xmlns="http://www.w3.org/2000/svg">
<path d="M9.8875 30.5375C11.6083 29.3029 13.3777 28.3477 15.1957 27.6719C17.0139 26.9961 18.9487 26.6582 21 26.6582C23.0513 26.6582 24.9909 26.9961 26.8188 27.6719C28.6466 28.3477 30.421 29.3029 32.1418 30.5375C33.3376 29.0888 34.2102 27.5769 34.7594 26.0019C35.3086 24.4269 35.5832 22.7596 35.5832 21C35.5832 16.8875 34.1809 13.4288 31.3762 10.6238C28.5712 7.81915 25.1125 6.41681 21 6.41681C16.8875 6.41681 13.4288 7.81915 10.6238 10.6238C7.81915 13.4288 6.41681 16.8875 6.41681 21C6.41681 22.7596 6.69623 24.4269 7.25506 26.0019C7.81419 27.5769 8.69167 29.0888 9.8875 30.5375ZM16.7051 20.7156C15.5434 19.5539 14.9625 18.1223 14.9625 16.4207C14.9625 14.7194 15.5434 13.2879 16.7051 12.1262C17.8671 10.9642 19.2987 10.3832 21 10.3832C22.7013 10.3832 24.1329 10.9642 25.2949 12.1262C26.4566 13.2879 27.0375 14.7194 27.0375 16.4207C27.0375 18.1223 26.4566 19.5539 25.2949 20.7156C24.1329 21.8773 22.7013 22.4582 21 22.4582C19.2987 22.4582 17.8671 21.8773 16.7051 20.7156ZM21 38.5C18.5987 38.5 16.3335 38.0406 14.2043 37.1219C12.0751 36.2031 10.2181 34.9514 8.63319 33.3668C7.04856 31.7819 5.79688 29.9249 4.87813 27.7957C3.95938 25.6665 3.5 23.4013 3.5 21C3.5 18.5792 3.95938 16.309 4.87813 14.1894C5.79688 12.0702 7.04856 10.2181 8.63319 8.63319C10.2181 7.04856 12.0751 5.79688 14.2043 4.87813C16.3335 3.95938 18.5987 3.5 21 3.5C23.4208 3.5 25.691 3.95938 27.8106 4.87813C29.9298 5.79688 31.7819 7.04856 33.3668 8.63319C34.9514 10.2181 36.2031 12.0702 37.1219 14.1894C38.0406 16.309 38.5 18.5792 38.5 21C38.5 23.4013 38.0406 25.6665 37.1219 27.7957C36.2031 29.9249 34.9514 31.7819 33.3668 33.3668C31.7819 34.9514 29.9298 36.2031 27.8106 37.1219C25.691 38.0406 23.4208 38.5 21 38.5ZM25.5938 34.8906C27.0716 34.4289 28.496 33.6681 29.8668 32.6082C28.496 31.6264 27.0668 30.8754 25.5793 30.3551C24.0918 29.835 22.5654 29.575 21 29.575C19.4346 29.575 17.9082 29.835 16.4207 30.3551C14.9332 30.8754 13.504 31.6264 12.1332 32.6082C13.504 33.6681 14.9284 34.4289 16.4063 34.8906C17.8841 35.3523 19.4154 35.5832 21 35.5832C22.5846 35.5832 24.1159 35.3523 25.5938 34.8906ZM23.2457 18.6668C23.829 18.0835 24.1207 17.3348 24.1207 16.4207C24.1207 15.5069 23.829 14.7583 23.2457 14.175C22.6624 13.5917 21.9138 13.3 21 13.3C20.0862 13.3 19.3376 13.5917 18.7543 14.175C18.171 14.7583 17.8793 15.5069 17.8793 16.4207C17.8793 17.3348 18.171 18.0835 18.7543 18.6668C19.3376 19.2501 20.0862 19.5418 21 19.5418C21.9138 19.5418 22.6624 19.2501 23.2457 18.6668Z" fill="white"/>
</svg>
