<svg width="42" height="42" viewBox="0 0 42 42" fill="none" xmlns="http://www.w3.org/2000/svg">
<path d="M8.16681 36.75C7.37931 36.75 6.69623 36.4608 6.11756 35.8824C5.53919 35.3038 5.25 34.6207 5.25 33.8332V8.16681C5.25 7.37931 5.53919 6.69623 6.11756 6.11756C6.69623 5.53919 7.37931 5.25 8.16681 5.25H33.8332C34.6207 5.25 35.3038 5.53919 35.8824 6.11756C36.4608 6.69623 36.75 7.37931 36.75 8.16681V33.8332C36.75 34.6207 36.4608 35.3038 35.8824 35.8824C35.3038 36.4608 34.6207 36.75 33.8332 36.75H8.16681ZM8.16681 33.8332H33.8332V28.1168H27.825C27.0279 29.2639 26.0241 30.1486 24.8137 30.7707C23.6033 31.3931 22.332 31.7043 21 31.7043C19.668 31.7043 18.3967 31.3931 17.1863 30.7707C15.9759 30.1486 14.9721 29.2639 14.175 28.1168H8.16681V33.8332ZM24.1644 27.7812C25.1077 27.1104 25.8612 26.25 26.425 25.2H33.8332V8.16681H8.16681V25.2H15.575C16.1388 26.25 16.8946 27.1104 17.8426 27.7812C18.7905 28.4521 19.8453 28.7875 21.007 28.7875C22.169 28.7875 23.2215 28.4521 24.1644 27.7812Z" fill="white"/>
</svg>
