<svg width="42" height="42" viewBox="0 0 42 42" fill="none" xmlns="http://www.w3.org/2000/svg">
<path d="M34.65 36.7207L23.3043 25.375C22.4293 26.1138 21.4133 26.6923 20.2562 27.1106C19.0992 27.5285 17.8694 27.7375 16.5668 27.7375C13.4069 27.7375 10.7309 26.6413 8.53869 24.4488C6.34623 22.2567 5.25 19.6002 5.25 16.4793C5.25 13.3585 6.34623 10.7018 8.53869 8.50939C10.7309 6.31693 13.3971 5.2207 16.5375 5.2207C19.6583 5.2207 22.31 6.31693 24.4926 8.50939C26.6754 10.7018 27.7668 13.3585 27.7668 16.4793C27.7668 17.7431 27.5626 18.9535 27.1543 20.1106C26.746 21.2673 26.1529 22.3319 25.375 23.3043L36.75 34.6207L34.65 36.7207ZM16.5375 24.8207C18.8417 24.8207 20.8031 24.0065 22.4219 22.3781C24.0406 20.7498 24.85 18.7835 24.85 16.4793C24.85 14.1752 24.0406 12.2087 22.4219 10.5801C20.8031 8.9517 18.8417 8.13751 16.5375 8.13751C14.2138 8.13751 12.2378 8.9517 10.6094 10.5801C8.981 12.2087 8.16681 14.1752 8.16681 16.4793C8.16681 18.7835 8.981 20.7498 10.6094 22.3781C12.2378 24.0065 14.2138 24.8207 16.5375 24.8207Z" fill="white"/>
</svg>
