<svg width="42" height="42" viewBox="0 0 42 42" fill="none" xmlns="http://www.w3.org/2000/svg">
<path d="M16.7125 38.5L15.8957 32.9582C15.3999 32.7736 14.8919 32.5306 14.3719 32.2293C13.8518 31.9277 13.3827 31.6117 12.9645 31.2813L7.78752 33.5856L3.4707 26.0313L8.12308 22.5894C8.07437 22.3465 8.0452 22.0816 8.03558 21.7949C8.02566 21.5079 8.0207 21.243 8.0207 21C8.0207 20.757 8.02566 20.4921 8.03558 20.2051C8.0452 19.9184 8.07437 19.6535 8.12308 19.4106L3.4707 15.9688L7.78752 8.41444L12.9645 10.7188C13.3827 10.3883 13.8543 10.0723 14.3793 9.77069C14.9043 9.4694 15.4098 9.23606 15.8957 9.07069L16.7125 3.5H25.2875L26.1043 9.04181C26.6002 9.22644 27.1129 9.46458 27.6426 9.75625C28.1725 10.0479 28.6369 10.3688 29.0356 10.7188L34.2125 8.41444L38.5293 15.9688L33.877 19.3519C33.9257 19.6144 33.9548 19.8892 33.9645 20.1762C33.9744 20.4629 33.9793 20.7375 33.9793 21C33.9793 21.2625 33.9744 21.5323 33.9645 21.8094C33.9548 22.0865 33.9208 22.3563 33.8625 22.6188L38.5145 26.0313L34.1981 33.5856L29.0356 31.2813C28.6173 31.6117 28.1507 31.9325 27.6356 32.2438C27.1202 32.555 26.6098 32.7931 26.1043 32.9582L25.2875 38.5H16.7125ZM19.1332 35.5832H22.852L23.4645 30.7707C24.4077 30.5374 25.295 30.1801 26.1262 29.6988C26.9575 29.2176 27.7133 28.6367 28.3938 27.9563L32.9293 29.8957L34.6645 26.8043L30.6688 23.8438C30.7951 23.3771 30.8923 22.9079 30.9606 22.4363C31.0285 21.965 31.0625 21.4862 31.0625 21C31.0625 20.5138 31.0333 20.035 30.975 19.5637C30.9167 19.0921 30.8146 18.6229 30.6688 18.1563L34.6645 15.1957L32.9293 12.1043L28.3938 14.0582C27.7326 13.329 26.9913 12.719 26.17 12.2281C25.3483 11.7373 24.4465 11.4043 23.4645 11.2293L22.8668 6.41681H19.1481L18.5356 11.2293C17.5731 11.4431 16.6762 11.7906 15.845 12.2719C15.0137 12.7531 14.2675 13.3438 13.6063 14.0438L9.0707 12.1043L7.33558 15.1957L11.3313 18.1418C11.205 18.6181 11.1077 19.0896 11.0395 19.5563C10.9715 20.0229 10.9375 20.5042 10.9375 21C10.9375 21.4862 10.9715 21.9626 11.0395 22.4293C11.1077 22.896 11.205 23.3675 11.3313 23.8438L7.33558 26.8043L9.0707 29.8957L13.6063 27.9418C14.2867 28.6319 15.0426 29.2176 15.8738 29.6988C16.7051 30.1801 17.5923 30.5374 18.5356 30.7707L19.1332 35.5832ZM21.0293 26.8332C22.6431 26.8332 24.0188 26.2644 25.1563 25.1269C26.2938 23.9894 26.8625 22.6138 26.8625 21C26.8625 19.3862 26.2938 18.0106 25.1563 16.8731C24.0188 15.7356 22.6431 15.1668 21.0293 15.1668C19.4056 15.1668 18.0275 15.7356 16.895 16.8731C15.7621 18.0106 15.1957 19.3862 15.1957 21C15.1957 22.6138 15.7621 23.9894 16.895 25.1269C18.0275 26.2644 19.4056 26.8332 21.0293 26.8332Z" fill="white"/>
</svg>
