<?xml version="1.0" encoding="UTF-8"?>
<svg id="Layer_1" data-name="Layer 1" xmlns="http://www.w3.org/2000/svg" viewBox="0 0 1010.45 1002.1">
  <defs>
    <style>
      .cls-1 {
        fill: #fff;
      }
    </style>
  </defs>
  <path class="cls-1" d="M1009.97,474.4l-1.67-28.09C994.22,208.6,779.93,14.74,538.03.89c-102.88-5.89-207.17,17.6-296.73,68.27-44.23,25.03-82.64,54.73-114.66,93.99l-27.36,33.55c-9.8,12.02-17.07,26.02-25.94,38.79-2.01,2.89-5.77,6.17-6.51,9.73-1.38,6.72-5.59,10.81-8.25,15.85l-6.04,11.46C25.29,324.23,4.87,393.47,1.17,452.27c-5.6,89.03,8.77,168.81,46.92,249.53,21.56,45.63,48,85.73,80.29,124.14,13,15.46,26.67,28.21,41.63,41.84l16.45,14.99c3.14,2.86,6.45,4.99,9.71,7.67l14.3,11.74c.97.79,3.7,1.48,4.42,2.21.72.73,1.44,3.24,2.41,3.82l23.36,13.74,34.69,20.21c23.69,13.8,63.28,30.1,89.94,38.22,32.95,10.04,81.46,19.03,115.39,20.96,102.68,5.81,203.3-21.77,289.95-76.85l28.46-18.09c7.99-5.08,16.11-11.98,23.02-18.36l43.41-40.1c9.29-8.58,17.02-19.33,25.26-29.21,35.42-42.45,62.3-88.39,82.99-139.74,18.37-45.6,31.71-91.39,34.5-140.59l1.6-28.27c.7-12.35.84-23.46.12-35.72ZM82.67,323.17c5.54-16.5,18.23-41.5,28.44-57.23,3.62-5.58,17.01-10.53,23.4-10.85l13.71-.68c17.98,5.22,30.73,15.22,38.58,36.65-2.35,6.57-6.46,13.15-10.17,19.82l-12.85,23.11c-5.23,9.4-8.89,20.07-13.45,30.17-11.14,24.63-6.06,30.3-19.92,45.69-18.44,1.67-35.75,1.97-47.81-14.1-12.32-16.42-6.26-53.68.08-72.58ZM248.89,607.25c-3.35-8.95-25.07-62.14-8.59-65.09,3.3-.59,7.21-2.01,11.1-3.7,3.94-1.71,8.48-1.25,11.99,1.21l9.55,6.7c7.89,5.54,9.78,16.92,20.62,21.35-19.88-59.65-19.39-149.86,11.57-203.64,21.08-36.6,6.97-17.33,40.91-48.69,13.18,1.96,26.96-7.17,37.73,9.08l-31.6,35.67c-18.81,21.24-27.38,45.18-31.58,73.17-3.27,21.8-4.1,44.17-.68,66.75,4.43,29.26,18.64,77.23,36.68,101.67,12.24,16.58,25.26,31.43,39.34,46.32,5.26,5.56,13.66,10.51,18.12,17.19,1.01,1.5,1.37,3.35,1.12,5.14-1.35,9.63-7.27,18.81-14.53,25.07-3.59,3.1-8.77,3.27-12.75.7-4.85-3.14-10.14-4.71-14.31-7.24l-20.5-12.41c-9.02-5.46-18.8-12.02-27.57-18.75-6.59-5.05-10-12.69-19.33-15.8-5.09-4.67,19.46,45.67,12.72,35.8,9.77,14.28,21,31.11,31.56,44.88,5.08,6.62,13.57,14.38,8.46,23.43-22.01,10.49-19.29,14.91-33.3,14.66-15.66-.27-27.27-7.07-39.88-14.92-6.17-3.84-12.17-7.96-17.95-12.36-44.1-33.6-87.7-100.39-101.13-153.47-.97-3.82-7.89-20.41-2.1-22.84l19.84-6.86c3.63-1.53,7.88-.75,10.62,2.08,4.25,4.39,6.68,9.92,8.37,15.7,6.59,22.47,29.23,58.16,44.63,75.87,3.13,3.6,14.54,26.82,24.35,25.94l-23.47-62.61ZM445.52,366.83c47.31-17.84,103.37-16.03,143.75,16.87,22.27,18.15,38.01,44.16,43.73,72.32,2.31,11.34,3.03,22.99,2.37,34.54-.37,6.35-1.15,12.67-2.31,18.92-9.1,49.25-39.69,101.89-89.47,118.62-6.04,2.03-12.23,3.47-18.52,4.42-13,1.96-26.37,1.79-39.46.22-11.05-1.32-22.07-3.65-32.29-8.05-27.06-11.67-45.16-34.77-60.18-59.13-12.78-20.74-22.13-43.82-25.46-67.95-3.33-24.13-.44-49.36,10-71.37.86-1.82,1.78-3.61,2.74-5.38,14.01-25.69,38.02-43.81,65.1-54.02ZM409.83,273.98c23.45-16.95,48.83-25.31,77.57-29.44,8.63-1.24,38.05-3.81,33.38,10.08l-8.77,26.04s-1.33,3.39-5.43,2.31c-23.34-.03-46.69,3.59-68.25,15.59-2.81,1.56-6.33,1.14-8.62-1.11-10.54-10.34-15.97-7.46-21.32-14.61-2.1-2.81-1.4-6.81,1.44-8.86ZM718.93,311.9c-1.22-10.12-8.55-42.52-8.55-42.52-.33-2.78,3.15-8.84,5.09-10.37,2.22-1.75,14.89-1.97,18.85-1.77,14.31.71,14.02,4.9,17.03,17.67,7.77,32.88,8.67,53.49,7.41,83.95,15.33,12.36,33.18,22.74,47.36,37.85,24.15,25.74,28.84,43.94,35.3,61.36,1.67,4.51-2.81,9.02-7.49,10.13-5.58,1.33-11.35,8.47-16.07,10.28-1.63.63-5.56-1.1-6.4-2.63-6.73-12.29-17.42-35.25-28.1-45.76-12.06-11.86-26.03-19.34-32.22-20.16-1.25,18.61-2.05,34.86-6.72,69.1-2.12,15.52-5.79,37.22-9.02,54.14-5.7,29.79-16.32,56.26-24.45,69.03l-19.48,30.62c-2.02,3.18-5.9,7.41-7.17,10.95-2.82,7.86-6.69,11.42-12.6,17.02-6.59,6.25-12,19.06-23.41,18.71l-18.94-7.08-5.28-4.89c-1.92-1.78-2.14-4.75-.49-6.78l6.69-8.26c3.32-4.1,7.29-7.87,9.84-11.77l7.04-10.77c9.38-14.37,18.42-26.62,26.82-41.09,2.59-4.46,6.21-14.28,7.28-19.18l9.02-40.41c5.54-25.2,2.56-50.8-1.02-75.81-1.37-9.54-10.77-46.09-15.4-54.25-10.25-18.05-21.32-35.74-34.7-51.66-12.6-14.99-27.38-28.41-44.38-38.25-8.29-4.8-17.29-7.58-25.78-11.69-6.18-2.99-18.6-10.21-7.81-16.2l17.56-9.75c3.7-2.05,8.08-2.48,12.11-1.18,4.63,1.5,9.28,3.03,13.56,5.25,6.42,3.33,12.58,7.36,18.52,11.48,11.95,8.28,23.06,17.79,33.08,28.34,10.2,10.74,19.24,22.5,28.56,33.99,1.56,1.93,29.19,48.25,28.99,49.18,10.2-45.9,6.44-77.76,5.35-86.81ZM573.72,713.73l-14.42,7.31c-14.64,5.13-71.81,9.24-95.52-2.44-5-2.46-6.59-8.82-3.4-13.39,3.86-5.53,8.36-10.92,13.26-15.26,1.96-1.74,4.56-2.58,7.18-2.38l28.03,2.32c14.45,1.1,28.13-.97,41.88-4.7,3.12-.85,6.46,0,8.83,2.19,7.73,7.15,19.45,23.49,14.15,26.34ZM543.85,955.19c-29.81,0-58.94,1.43-88.74-1.61-52.08-5.3-103.57-18.14-151.59-39.08-23.68-10.32-46.5-22.63-67.95-37.03-22.5-15.1-42.24-32.89-62.05-51.28-3.35-3.11-12.78-14.62-13.91-17-1.13-2.38-3.14-4.19-4.93-6.12-8.06-8.65-58.43-81.04-62.41-88.8-6.19-12.06-13.44-23.92-18.79-36.36-6.83-15.88-9.77-33.04-14.06-49.69-2.76-10.7-6.09-21.24-8.76-31.96-9.19-36.82-17.35-74-16.76-112.21,0-.02.25-16.21.25-16.21-.04,2.82,4.49-41.41,6.41-43.7,9.07,11.18,16.45,19.41,29.82,20.21l49.53,2.96-2.18,27.27c-4.55,57.03,6.39,111.47,29.44,163.5,17.79,40.15,40.41,77.07,70.35,108.92,19.43,20.67,38.83,38.75,62.03,55.32,75.52,53.94,166.98,79.93,259.6,73.63,83.66-5.69,164.99-33.48,225.03-91.46l42.37-40.92c4.82-4.65,8.04-9.86,12.04-16.02l8.88-13.68c-.21-2.2,7.9-7.46,10.64-2.48,24.32,13.18,29.27,29.63,61.44,36.93-78.73,121.51-211.01,197.22-355.72,206.86ZM965.86,572.86c-5.85,33.16-12.5,65.68-28.7,94.89-21.01,37.89-28.07,35.62-34.44,36.51l-11-3.88c-2.54.36-27.31-15.37-31.88-27.14l12.65-35.56,9.41-26.44c2.46-6.92,3.15-13.31,4.4-20l7.59-40.7,19.78-4.46c13.33-3.01,27.55-3.29,39.42,2.73,9.47,4.8,14.62,13.51,12.76,24.06ZM970.91,517.08c-9.22-3.55-15.31-8.42-22.93-10.31-15.29-3.79-31.25.81-47.71-.78-8.82-.85-10.09-8.51-10.09-8.51-.94-74.35-30.17-154.76-76.83-212.47-84.05-103.96-218.98-160.54-352.56-148.39-44.93,4.09-88.07,13.68-129.71,31.21-89.78,37.79-83.84,56.63-102.18,68.98-4.38,2.95-10.18,11.82-14.57,16.76-3.36-2.6-8.08-5.73-11.06-8.53l-13.21-12.44-15.21-13.77c-10.02-9.07-23.07-11.52-38.4-11.47-1.86-4.8,3.43-10.21,7.67-13.78l43.26-36.41c89.89-75.66,222.38-115.99,340.43-108.41,108.17,6.95,212.48,47.49,294.08,118.57,35.63,31.03,72.62,74.69,95.41,115.74,39.65,71.42,57.68,152.14,53.61,234Z"/>
  <path class="cls-1" d="M480.81,559.2c5.01,1.43,10.09,2.62,15.21,3.56,14.46,2.65,31.24,3.55,49.08-6.81,26.91-15.62,32.8-54.34,26.99-82.52-4.55-22.05-26.74-38.75-46.16-47.49-21.1-9.49-45.79-11.3-66.9-.85-13.57,6.72-14.54,18.45-18.32,31.67-2.86,10-6.3,20.2-6.6,30.69-.29,10.03,2.47,20.08,5.9,29.42,6.91,18.8,20.88,36.63,40.81,42.32Z"/>
</svg>